PathFileType	4	(x/y/z)	S02_PSF_T02
DataRate	CameraRate	NumFrames	NumMarkers	Units	OrigDataRate	OrigDataStartFrame	OrigNumFrames
240	240	7	51	mm	240	154	410
Frame#	Time	Sternum			R.Acromium			L.Acromium			Top.Head			R.ASIS			L.ASIS			R.PSIS			L.PSIS			R.Great.Tro			L.Great.Tro			R.Iliac.Crest			L.Iliac.Crest			V.Sacral			R.Thigh.Upper.Post			R.Thigh.Lower.Ant			R.Thigh.Lower.Post			R.Thigh.Upper.Ant			R.Knee.Lat			R.Knee.Med			R.Shank.Upper.Post			R.Shank.Lower.Ant			R.Shank.Lower.Post			R.Shank.Upper.Ant			R.Ankle.Lat			R.Ankle.Med			R.Heel.Upper			R.Heel.Med			R.Heel.Lat			R.Toe.Lat			R.Toe.Med			R.Toe.Tip			L.Thigh.Upper.Post			L.Thigh.Lower.Ant			L.Thigh.Lower.Post			L.Thigh.Upper.Ant			L.Knee.Lat			L.Knee.Med			L.Shank.Upper.Post			L.Shank.Lower.Ant			L.Shank.Lower.Post			L.Shank.Upper.Ant			L.Ankle.Lat			L.Ankle.Med			L.Heel.Upper			L.Heel.Med			L.Heel.Lat			L.Toe.Lat			L.Toe.Med			L.Toe.Tip			Cervical.Spine			Back			
		X1	Y1	Z1	X2	Y2	Z2	X3	Y3	Z3	X4	Y4	Z4	X5	Y5	Z5	X6	Y6	Z6	X7	Y7	Z7	X8	Y8	Z8	X9	Y9	Z9	X10	Y10	Z10	X11	Y11	Z11	X12	Y12	Z12	X13	Y13	Z13	X14	Y14	Z14	X15	Y15	Z15	X16	Y16	Z16	X17	Y17	Z17	X18	Y18	Z18	X19	Y19	Z19	X20	Y20	Z20	X21	Y21	Z21	X22	Y22	Z22	X23	Y23	Z23	X24	Y24	Z24	X25	Y25	Z25	X26	Y26	Z26	X27	Y27	Z27	X28	Y28	Z28	X29	Y29	Z29	X30	Y30	Z30	X31	Y31	Z31	X32	Y32	Z32	X33	Y33	Z33	X34	Y34	Z34	X35	Y35	Z35	X36	Y36	Z36	X37	Y37	Z37	X38	Y38	Z38	X39	Y39	Z39	X40	Y40	Z40	X41	Y41	Z41	X42	Y42	Z42	X43	Y43	Z43	X44	Y44	Z44	X45	Y45	Z45	X46	Y46	Z46	X47	Y47	Z47	X48	Y48	Z48	X49	Y49	Z49	X50	Y50	Z50	X51	Y51	Z51	

154	0.6375	-575.26	1064.2	317.13	-686.38	1301.3	466.45	-677.02	1305.6	173.78	-648.17	1594.5	324.25	-598.39	902.72	404.58	-611.97	887.59	194.79	-818.08	934.77	375.03	-828.28	938.42	301.94	-638.9	783.89	502.43	-755.13	793.83	119.98	-698.97	940.35	477.58	-740.03	939.25	143.78	-847.09	887.84	334.8	-560.72	604.92	478.34	-484.43	556.8	430.47	-541.9	519.05	455.34	-508.07	641.14	451.01	-496.37	457.31	435.33	-518.77	444	292.77	-537.35	241.56	419.09	-451.15	176.17	395.83	-517.67	171.28	407.36	-465.17	243.28	413.17	-486.62	86.938	392.7	-480.48	101.87	310.66	-544.88	68.564	335.98	-527.99	37.187	309.6	-539.65	38.615	372.8	-379.47	45.999	417.12	-345.41	42.275	311.55	-301.66	76.063	366.7	-820.97	591.42	157.16	-762.37	498.38	143.88	-836.51	503.32	174.96	-753.63	592.49	129.22	-801.14	422.85	152.44	-785.71	412.46	289.06	-970.84	338.44	165.08	-976.09	227.45	174.84	-1020.7	284.27	182.58	-929.28	288.35	159.32	-1072.7	174.73	193.12	-1063.7	168.87	273.71	-1139.7	186.82	227.56	-1148.6	166.51	264.13	-1154.5	160.03	202.53	-1038.2	46.05	179.74	-1018.4	53.311	288.72	-961.94	45.141	247.48	-759.55	1368.3	322.1	-837.15	1117.9	314.83
155	0.64167	-569.25	1064.6	317.82	-680.35	1301.3	467.41	-671.34	1306	174.83	-642.49	1594.7	325.39	-592.27	903.19	405.07	-605.86	887.89	195.48	-811.94	935.05	375.22	-821.93	938.51	302.07	-632.51	784.52	502.9	-748.42	793.13	120.33	-692.89	940.68	477.93	-733.57	939.6	144.05	-840.91	888.06	335.05	-554.58	605.43	478.8	-478.14	557.36	431.11	-535.65	519.57	455.83	-501.87	641.69	451.67	-489.98	457.66	435.58	-512.38	444.87	293.23	-533.73	242.17	419.55	-448.57	175.57	395.81	-515.11	171.63	407.7	-461.55	242.86	413.27	-485.62	86.946	392.75	-479.41	101.88	310.75	-544.37	69.063	336.08	-527.79	37.523	309.66	-539.39	39.033	372.86	-379	45.014	416.98	-344.95	40.79	311.38	-300.74	74.1	366.51	-812.89	590.2	157.19	-753.6	497.71	143.19	-827.69	501.9	174.6	-745.66	591.95	129	-792.04	422.1	151.41	-775.58	410.99	287.88	-962.79	340.1	164.99	-969.67	229.3	174.11	-1013.3	286.7	182.47	-921.91	289.45	158.58	-1066.7	177.95	192.76	-1057.4	171.83	273.28	-1132.7	192.3	227.44	-1142.3	172.59	264.2	-1148.5	166.12	202.51	-1036.7	47.967	179.7	-1016.4	54.718	288.58	-960.83	44.532	247.27	-753.72	1368.4	323.26	-831.17	1118	315.68
156	0.64583	-563.28	1065.1	318.52	-674.35	1301.4	468.36	-665.66	1306.3	175.88	-636.81	1594.9	326.52	-586.17	903.73	405.56	-599.79	888.24	196.18	-805.8	935.36	375.42	-815.63	938.64	302.19	-626.18	785.19	503.35	-741.71	792.45	120.7	-686.84	941.07	478.27	-727.17	939.97	144.33	-834.75	888.31	335.31	-548.55	605.92	479.32	-471.98	557.88	431.8	-529.52	520.06	456.37	-495.76	642.19	452.39	-483.74	457.94	435.87	-505.95	445.73	293.71	-530.25	242.75	420.05	-446.11	174.99	395.83	-512.67	171.97	408.05	-458.07	242.43	413.41	-484.69	86.972	392.83	-478.43	101.94	310.86	-543.92	69.514	336.18	-527.6	37.844	309.72	-539.16	39.408	372.93	-378.58	44.17	416.88	-344.54	39.502	311.22	-299.94	72.362	366.34	-804.75	588.98	157.17	-744.72	497.07	142.47	-818.76	500.47	174.19	-737.63	591.44	128.74	-782.8	421.38	150.35	-765.24	409.53	286.66	-954.48	341.79	164.87	-962.96	231.19	173.38	-1005.6	289.15	182.36	-914.32	290.57	157.82	-1060.4	181.22	192.39	-1050.9	174.81	272.86	-1125.2	197.84	227.32	-1135.6	178.76	264.29	-1142.1	172.33	202.49	-1035	50.07	179.67	-1014.1	56.251	288.42	-959.58	43.883	247	-747.91	1368.5	324.39	-825.21	1118.1	316.5
157	0.65	-557.34	1065.6	319.23	-668.38	1301.6	469.3	-660	1306.7	176.92	-631.15	1595.2	327.65	-580.09	904.35	406.05	-593.76	888.63	196.89	-799.67	935.7	375.63	-809.38	938.8	302.32	-619.93	785.89	503.81	-735.01	791.78	121.07	-680.83	941.53	478.58	-720.83	940.37	144.64	-828.63	888.59	335.57	-542.64	606.37	479.89	-465.95	558.34	432.56	-523.55	520.51	456.96	-489.76	642.65	453.16	-477.7	458.15	436.21	-499.53	446.53	294.22	-526.9	243.3	420.55	-443.78	174.41	395.87	-510.34	172.31	408.41	-454.75	242	413.58	-483.84	87.011	392.91	-477.52	102.03	310.99	-543.52	69.919	336.29	-527.43	38.147	309.79	-538.94	39.741	373	-378.2	43.453	416.79	-344.17	38.396	311.09	-299.23	70.836	366.21	-796.55	587.75	157.11	-735.75	496.46	141.71	-809.74	499.04	173.73	-729.55	590.96	128.45	-773.41	420.68	149.25	-754.68	408.09	285.39	-945.94	343.51	164.74	-955.96	233.11	172.65	-997.64	291.62	182.26	-906.51	291.72	157.06	-1053.9	184.52	192.03	-1044.1	177.81	272.46	-1117.4	203.42	227.21	-1128.4	184.97	264.38	-1135.4	178.62	202.49	-1033.2	52.359	179.65	-1011.6	57.906	288.25	-958.19	43.199	246.68	-742.13	1368.7	325.5	-819.28	1118.3	317.3
158	0.65417	-551.45	1066.1	319.94	-662.44	1301.8	470.22	-654.35	1307.1	177.96	-625.5	1595.4	328.78	-574.05	905.04	406.55	-587.77	889.08	197.6	-793.57	936.06	375.84	-803.18	938.98	302.46	-613.76	786.6	504.26	-728.31	791.14	121.46	-674.85	942.04	478.89	-714.55	940.78	144.97	-822.54	888.88	335.83	-536.87	606.78	480.5	-460.07	558.71	433.35	-517.74	520.91	457.59	-483.87	643.03	453.98	-471.9	458.27	436.6	-493.12	447.28	294.74	-523.7	243.8	421.06	-441.59	173.84	395.93	-508.14	172.62	408.77	-451.58	241.54	413.78	-483.05	87.058	393.01	-476.69	102.15	311.14	-543.15	70.278	336.4	-527.28	38.431	309.86	-538.74	40.034	373.07	-377.88	42.851	416.74	-343.86	37.459	310.97	-298.61	69.505	366.11	-788.3	586.53	157.01	-726.69	495.89	140.92	-800.63	497.63	173.24	-721.41	590.5	128.14	-763.9	420.01	148.14	-743.94	406.68	284.1	-937.15	345.24	164.59	-948.67	235.05	171.93	-989.45	294.11	182.16	-898.48	292.89	156.3	-1047	187.84	191.68	-1037	180.81	272.08	-1109.2	209.01	227.11	-1120.9	191.2	264.47	-1128.2	184.97	202.5	-1031.1	54.827	179.64	-1008.8	59.674	288.05	-956.63	42.484	246.31	-736.39	1368.9	326.58	-813.38	1118.5	318.08
159	0.65833	-545.59	1066.7	320.65	-656.52	1302	471.12	-648.72	1307.6	178.98	-619.87	1595.7	329.91	-568.03	905.78	407.05	-581.83	889.56	198.32	-787.49	936.45	376.05	-797.04	939.19	302.6	-607.67	787.33	504.72	-721.63	790.52	121.86	-668.91	942.59	479.19	-708.34	941.19	145.32	-816.48	889.19	336.11	-531.25	607.13	481.13	-454.36	558.99	434.17	-512.13	521.24	458.24	-478.11	643.33	454.83	-466.34	458.31	437.04	-486.77	447.93	295.29	-520.65	244.27	421.56	-439.52	173.27	396.02	-506.06	172.91	409.12	-448.57	241.07	414	-482.34	87.109	393.11	-475.93	102.28	311.29	-542.84	70.595	336.51	-527.14	38.695	309.93	-538.55	40.29	373.14	-377.59	42.349	416.7	-343.58	36.674	310.86	-298.07	68.354	366.03	-780.01	585.34	156.88	-717.57	495.37	140.12	-791.45	496.23	172.71	-713.24	590.09	127.8	-754.28	419.38	147.02	-733.01	405.33	282.78	-928.13	347	164.43	-941.1	237.01	171.23	-981.03	296.6	182.08	-890.23	294.1	155.54	-1039.9	191.18	191.34	-1029.6	183.81	271.73	-1100.6	214.59	227.02	-1113	197.41	264.57	-1120.7	191.35	202.53	-1028.8	57.467	179.63	-1005.7	61.547	287.84	-954.9	41.747	245.87	-730.68	1369.1	327.63	-807.49	1118.7	318.84
160	0.6625	-539.76	1067.3	321.36	-650.64	1302.3	472.01	-643.11	1308	179.98	-614.26	1596	331.03	-562.05	906.58	407.56	-575.93	890.07	199.03	-781.45	936.84	376.28	-790.95	939.41	302.76	-601.66	788.06	505.19	-714.98	789.94	122.28	-663.01	943.2	479.49	-702.21	941.6	145.7	-810.47	889.51	336.39	-525.79	607.41	481.78	-448.83	559.16	435.02	-506.72	521.51	458.9	-472.49	643.53	455.71	-461.06	458.26	437.54	-480.51	448.48	295.86	-517.75	244.69	422.04	-437.58	172.7	396.13	-504.1	173.18	409.46	-445.72	240.59	414.24	-481.68	87.16	393.22	-475.25	102.43	311.45	-542.55	70.873	336.63	-527.01	38.938	309.99	-538.38	40.512	373.21	-377.34	41.935	416.69	-343.34	36.025	310.77	-297.61	67.364	365.97	-771.69	584.17	156.72	-708.39	494.91	139.3	-782.21	494.87	172.16	-705.05	589.72	127.45	-744.55	418.8	145.89	-721.92	404.04	281.45	-918.9	348.78	164.26	-933.26	238.98	170.56	-972.37	299.1	182.01	-881.79	295.34	154.79	-1032.5	194.53	191.02	-1021.9	186.78	271.4	-1091.6	220.14	226.96	-1104.7	203.58	264.67	-1112.8	197.73	202.59	-1026.2	60.267	179.63	-1002.3	63.511	287.59	-952.97	40.998	245.38	-725.01	1369.4	328.66	-801.64	1118.9	319.58
